<mxfile host="app.diagrams.net" modified="2020-09-14T05:53:56.164Z" agent="5.0 (X11; Linux x86_64) AppleWebKit/537.36 (KHTML, like Gecko) Chrome/85.0.4183.102 Safari/537.36" etag="j6vfi5ML-pQuHzaU6A2E" version="13.6.10" type="github">
  <diagram id="C5RBs43oDa-KdzZeNtuy" name="Page-1">
    <mxGraphModel dx="796" dy="425" grid="1" gridSize="10" guides="1" tooltips="1" connect="1" arrows="1" fold="1" page="1" pageScale="1" pageWidth="827" pageHeight="1169" math="0" shadow="0">
      <root>
        <mxCell id="WIyWlLk6GJQsqaUBKTNV-0" />
        <mxCell id="WIyWlLk6GJQsqaUBKTNV-1" parent="WIyWlLk6GJQsqaUBKTNV-0" />
        <mxCell id="hhLiXx7StrTXXwhesSVC-1" value="" style="edgeStyle=orthogonalEdgeStyle;rounded=0;orthogonalLoop=1;jettySize=auto;html=1;" edge="1" parent="WIyWlLk6GJQsqaUBKTNV-1" source="WIyWlLk6GJQsqaUBKTNV-3" target="hhLiXx7StrTXXwhesSVC-0">
          <mxGeometry relative="1" as="geometry" />
        </mxCell>
        <mxCell id="hhLiXx7StrTXXwhesSVC-7" value="" style="edgeStyle=orthogonalEdgeStyle;rounded=0;orthogonalLoop=1;jettySize=auto;html=1;" edge="1" parent="WIyWlLk6GJQsqaUBKTNV-1" source="WIyWlLk6GJQsqaUBKTNV-3" target="hhLiXx7StrTXXwhesSVC-2">
          <mxGeometry relative="1" as="geometry" />
        </mxCell>
        <mxCell id="WIyWlLk6GJQsqaUBKTNV-3" value="ES6" style="rounded=1;whiteSpace=wrap;html=1;fontSize=12;glass=0;strokeWidth=1;shadow=0;" parent="WIyWlLk6GJQsqaUBKTNV-1" vertex="1">
          <mxGeometry x="160" y="80" width="120" height="40" as="geometry" />
        </mxCell>
        <mxCell id="hhLiXx7StrTXXwhesSVC-21" value="" style="edgeStyle=orthogonalEdgeStyle;rounded=0;orthogonalLoop=1;jettySize=auto;html=1;" edge="1" parent="WIyWlLk6GJQsqaUBKTNV-1" source="hhLiXx7StrTXXwhesSVC-0" target="hhLiXx7StrTXXwhesSVC-5">
          <mxGeometry relative="1" as="geometry" />
        </mxCell>
        <mxCell id="hhLiXx7StrTXXwhesSVC-0" value="How to code make simple" style="rounded=0;whiteSpace=wrap;html=1;" vertex="1" parent="WIyWlLk6GJQsqaUBKTNV-1">
          <mxGeometry x="350" y="80" width="170" height="40" as="geometry" />
        </mxCell>
        <mxCell id="hhLiXx7StrTXXwhesSVC-6" value="" style="edgeStyle=orthogonalEdgeStyle;rounded=0;orthogonalLoop=1;jettySize=auto;html=1;" edge="1" parent="WIyWlLk6GJQsqaUBKTNV-1" source="hhLiXx7StrTXXwhesSVC-2" target="hhLiXx7StrTXXwhesSVC-4">
          <mxGeometry relative="1" as="geometry" />
        </mxCell>
        <mxCell id="hhLiXx7StrTXXwhesSVC-12" value="" style="edgeStyle=orthogonalEdgeStyle;rounded=0;orthogonalLoop=1;jettySize=auto;html=1;" edge="1" parent="WIyWlLk6GJQsqaUBKTNV-1" source="hhLiXx7StrTXXwhesSVC-2" target="hhLiXx7StrTXXwhesSVC-11">
          <mxGeometry relative="1" as="geometry" />
        </mxCell>
        <mxCell id="hhLiXx7StrTXXwhesSVC-2" value="Class" style="rounded=0;whiteSpace=wrap;html=1;" vertex="1" parent="WIyWlLk6GJQsqaUBKTNV-1">
          <mxGeometry x="160" y="275" width="120" height="40" as="geometry" />
        </mxCell>
        <mxCell id="hhLiXx7StrTXXwhesSVC-3" value="Inheritance" style="rounded=0;whiteSpace=wrap;html=1;" vertex="1" parent="WIyWlLk6GJQsqaUBKTNV-1">
          <mxGeometry x="354" y="275" width="120" height="30" as="geometry" />
        </mxCell>
        <mxCell id="hhLiXx7StrTXXwhesSVC-4" value="Get and Set" style="rounded=0;whiteSpace=wrap;html=1;" vertex="1" parent="WIyWlLk6GJQsqaUBKTNV-1">
          <mxGeometry x="354" y="320" width="120" height="30" as="geometry" />
        </mxCell>
        <mxCell id="hhLiXx7StrTXXwhesSVC-5" value="Destructure&lt;br&gt;Literal Object&lt;br&gt;Merge array" style="rounded=0;whiteSpace=wrap;html=1;" vertex="1" parent="WIyWlLk6GJQsqaUBKTNV-1">
          <mxGeometry x="570" y="70" width="120" height="60" as="geometry" />
        </mxCell>
        <mxCell id="hhLiXx7StrTXXwhesSVC-10" value="" style="edgeStyle=orthogonalEdgeStyle;rounded=0;orthogonalLoop=1;jettySize=auto;html=1;" edge="1" parent="WIyWlLk6GJQsqaUBKTNV-1" source="hhLiXx7StrTXXwhesSVC-8" target="hhLiXx7StrTXXwhesSVC-9">
          <mxGeometry relative="1" as="geometry" />
        </mxCell>
        <mxCell id="hhLiXx7StrTXXwhesSVC-8" value="Not yet" style="strokeWidth=2;html=1;shape=mxgraph.flowchart.decision;whiteSpace=wrap;" vertex="1" parent="WIyWlLk6GJQsqaUBKTNV-1">
          <mxGeometry x="520" y="280" width="80" height="60" as="geometry" />
        </mxCell>
        <mxCell id="hhLiXx7StrTXXwhesSVC-9" value="Override&lt;br&gt;Encapsulation&lt;br&gt;Abstraction" style="rounded=1;whiteSpace=wrap;html=1;absoluteArcSize=1;arcSize=14;strokeWidth=2;" vertex="1" parent="WIyWlLk6GJQsqaUBKTNV-1">
          <mxGeometry x="650" y="260" width="100" height="100" as="geometry" />
        </mxCell>
        <mxCell id="hhLiXx7StrTXXwhesSVC-17" value="" style="edgeStyle=orthogonalEdgeStyle;rounded=0;orthogonalLoop=1;jettySize=auto;html=1;" edge="1" parent="WIyWlLk6GJQsqaUBKTNV-1" source="hhLiXx7StrTXXwhesSVC-11" target="hhLiXx7StrTXXwhesSVC-14">
          <mxGeometry relative="1" as="geometry" />
        </mxCell>
        <mxCell id="hhLiXx7StrTXXwhesSVC-20" value="" style="edgeStyle=orthogonalEdgeStyle;rounded=0;orthogonalLoop=1;jettySize=auto;html=1;" edge="1" parent="WIyWlLk6GJQsqaUBKTNV-1" source="hhLiXx7StrTXXwhesSVC-11" target="hhLiXx7StrTXXwhesSVC-19">
          <mxGeometry relative="1" as="geometry">
            <Array as="points">
              <mxPoint x="220" y="565" />
            </Array>
          </mxGeometry>
        </mxCell>
        <mxCell id="hhLiXx7StrTXXwhesSVC-11" value="Asynchronous" style="rounded=1;whiteSpace=wrap;html=1;absoluteArcSize=1;arcSize=14;strokeWidth=2;" vertex="1" parent="WIyWlLk6GJQsqaUBKTNV-1">
          <mxGeometry x="170" y="450" width="100" height="40" as="geometry" />
        </mxCell>
        <mxCell id="hhLiXx7StrTXXwhesSVC-16" value="" style="edgeStyle=orthogonalEdgeStyle;rounded=0;orthogonalLoop=1;jettySize=auto;html=1;" edge="1" parent="WIyWlLk6GJQsqaUBKTNV-1" source="hhLiXx7StrTXXwhesSVC-14" target="hhLiXx7StrTXXwhesSVC-15">
          <mxGeometry relative="1" as="geometry" />
        </mxCell>
        <mxCell id="hhLiXx7StrTXXwhesSVC-14" value="Why?" style="strokeWidth=2;html=1;shape=mxgraph.flowchart.decision;whiteSpace=wrap;" vertex="1" parent="WIyWlLk6GJQsqaUBKTNV-1">
          <mxGeometry x="318" y="445" width="74" height="50" as="geometry" />
        </mxCell>
        <mxCell id="hhLiXx7StrTXXwhesSVC-15" value="if json != finish&lt;br&gt;function will return error" style="whiteSpace=wrap;html=1;strokeWidth=2;" vertex="1" parent="WIyWlLk6GJQsqaUBKTNV-1">
          <mxGeometry x="440" y="440" width="140" height="60" as="geometry" />
        </mxCell>
        <mxCell id="hhLiXx7StrTXXwhesSVC-19" value="Know how to in react&lt;br&gt;using fetch" style="rounded=1;whiteSpace=wrap;html=1;absoluteArcSize=1;arcSize=14;strokeWidth=2;" vertex="1" parent="WIyWlLk6GJQsqaUBKTNV-1">
          <mxGeometry x="290" y="540" width="130" height="50" as="geometry" />
        </mxCell>
        <mxCell id="hhLiXx7StrTXXwhesSVC-22" value="Need More Pratice" style="strokeWidth=2;html=1;shape=mxgraph.flowchart.start_1;whiteSpace=wrap;" vertex="1" parent="WIyWlLk6GJQsqaUBKTNV-1">
          <mxGeometry x="480" y="540" width="100" height="60" as="geometry" />
        </mxCell>
      </root>
    </mxGraphModel>
  </diagram>
</mxfile>
